<svg width="203" height="28" viewBox="0 0 203 28" fill="none" xmlns="http://www.w3.org/2000/svg">
<path d="M30 28H27.5H25H22.5H20H17.5V25.5V23H15H12.5H10V25.5V28H7.5H5H2.5H0V25.5V23H2.5V20.5V18H5V15.5V13H7.5V10.5V8V5.5V3H10V0.5H12.5H15H17.5V3H20V5.5H22.5V8V10.5H25V13V15.5H27.5V18V20.5H30V23H32.5V25.5V28H30ZM15 18H17.5V15.5V13H15H12.5V15.5V18H15ZM52.5 28H50H47.5H45H42.5H40H37.5H35V25.5V23V20.5V18V15.5V13V10.5V8V5.5H32.5V3H35V0.5H37.5H40H42.5V3V5.5V8V10.5V13H45V10.5H47.5H50H52.5H55V13H57.5V15.5V18V20.5V23V25.5H55V28H52.5ZM45 23H47.5V20.5V18V15.5H45H42.5V18V20.5V23H45ZM72.5 28H70H67.5H65H62.5V25.5H60V23V20.5V18V15.5V13H62.5V10.5H65V8H67.5H70H72.5H75V10.5H77.5V13H80V15.5V18V20.5V23H77.5V25.5H75V28H72.5ZM70 23H72.5V20.5V18V15.5H70V13H67.5V15.5V18V20.5V23H70ZM107.5 28H105H102.5H100H97.5H95H92.5H90H87.5V25.5H85V23V20.5V18V15.5V13H82.5V10.5H85V8H87.5H90H92.5H95V10.5V13V15.5V18V20.5V23H97.5H100V20.5V18V15.5V13H97.5V10.5H100V8H102.5H105H107.5V10.5V13V15.5V18V20.5V23H110V25.5V28H107.5ZM125 28H122.5H120H117.5V25.5H115V23V20.5V18V15.5V13H112.5V10.5V8H115V5.5H117.5H120V3H122.5H125V5.5V8H127.5H130V10.5V13H127.5H125V15.5V18V20.5V23H127.5V20.5H130V23V25.5H127.5V28H125ZM177.5 28H175H172.5V25.5V23V20.5V18V15.5H170V18V20.5V23V25.5V28H167.5H165H162.5H160V25.5V23V20.5V18V15.5H157.5V18V20.5V23V25.5V28H155H152.5H150H147.5V25.5V23V20.5V18V15.5H145V13V10.5H147.5V8H150H152.5H155V10.5H157.5H160V8H162.5H165H167.5V10.5H170H172.5V8H175H177.5V10.5H180V13V15.5V18V20.5V23V25.5V28H177.5ZM197.5 28H195H192.5H190H187.5V25.5H185V23H182.5V20.5V18V15.5H185V13V10.5H187.5H190V8H192.5H195H197.5V10.5H200V13H202.5V15.5V18H200H197.5H195H192.5H190V20.5H192.5V23H195H197.5V20.5H200H202.5V23V25.5H200V28H197.5ZM192.5 15.5H195V13H192.5H190V15.5H192.5Z" fill="url(#paint0_linear_1_103)"/>
<defs>
<linearGradient id="paint0_linear_1_103" x1="10.0947" y1="17.1852" x2="187.14" y2="17.1852" gradientUnits="userSpaceOnUse">
<stop stop-color="#FB879E"/>
<stop offset="1" stop-color="#8CC5FC"/>
</linearGradient>
</defs>
</svg>
