<svg width="280" height="60" viewBox="0 0 280 60" fill="none" xmlns="http://www.w3.org/2000/svg">
<path d="M15 21H13.125H11.25H9.375H7.5H5.625V19.125H3.75V17.25H1.875V15.375V13.5H0V11.625V9.75V7.875H1.875V6V4.125H3.75V2.25H5.625H7.5V0.375H9.375H11.25H13.125H15V2.25H16.875V0.375H18.75H20.625V2.25V4.125V6V7.875V9.75H18.75H16.875V7.875H15V6H13.125V4.125H11.25H9.375V6H7.5V7.875V9.75V11.625H9.375V13.5V15.375H11.25H13.125H15H16.875H18.75V13.5H20.625V15.375V17.25V19.125H18.75H16.875V21H15ZM31.875 21H30H28.125H26.25H24.375V19.125H22.5V17.25V15.375V13.5V11.625V9.75H24.375V7.875H26.25V6H28.125H30H31.875H33.75V7.875H35.625V9.75H37.5V11.625V13.5V15.375V17.25H35.625V19.125H33.75V21H31.875ZM30 17.25H31.875V15.375V13.5V11.625H30V9.75H28.125V11.625V13.5V15.375V17.25H30ZM56.25 21H54.375H52.5H50.625V19.125V17.25V15.375V13.5V11.625H48.75V13.5V15.375V17.25V19.125V21H46.875H45H43.125H41.25V19.125V17.25V15.375V13.5V11.625V9.75H39.375V7.875H41.25V6H43.125H45H46.875V7.875H48.75H50.625V6H52.5H54.375V7.875H56.25V9.75H58.125V11.625V13.5V15.375V17.25V19.125V21H56.25ZM69.375 21H67.5H65.625H63.75V19.125H61.875V17.25V15.375V13.5V11.625V9.75H60V7.875V6H61.875V4.125H63.75H65.625V2.25H67.5H69.375V4.125V6H71.25H73.125V7.875V9.75H71.25H69.375V11.625V13.5V15.375V17.25H71.25V15.375H73.125V17.25V19.125H71.25V21H69.375ZM90 21H88.125H86.25H84.375H82.5H80.625H78.75H76.875V19.125H75V17.25V15.375H76.875V13.5H78.75H80.625H82.5V11.625H84.375V9.75H82.5H80.625V11.625H78.75H76.875V9.75V7.875H78.75V6H80.625H82.5H84.375H86.25H88.125V7.875H90V9.75V11.625V13.5V15.375V17.25H91.875V19.125V21H90ZM84.375 19.125V17.25V15.375H82.5V17.25V19.125H84.375ZM105 21H103.125H101.25H99.375H97.5V19.125H95.625V17.25H93.75V15.375V13.5V11.625H95.625V9.75V7.875H97.5H99.375V6H101.25H103.125H105V7.875H106.875H108.75V9.75V11.625V13.5H106.875H105V11.625H103.125V9.75H101.25V11.625V13.5V15.375H103.125V17.25H105V15.375H106.875H108.75V17.25V19.125H106.875V21H105ZM120 21H118.125H116.25H114.375V19.125H112.5V17.25V15.375V13.5V11.625V9.75H110.625V7.875V6H112.5V4.125H114.375H116.25V2.25H118.125H120V4.125V6H121.875H123.75V7.875V9.75H121.875H120V11.625V13.5V15.375V17.25H121.875V15.375H123.75V17.25V19.125H121.875V21H120ZM144.375 21H142.5H140.625H138.75H136.875H135V19.125V17.25H136.875V15.375V13.5V11.625H135V9.75H136.875V7.875H135V6V4.125H136.875V2.25H138.75V0.375H140.625H142.5H144.375V2.25H146.25V4.125V6H144.375H142.5V4.125H140.625V6V7.875H142.5V9.75H144.375H146.25V11.625H144.375H142.5V13.5V15.375V17.25H144.375H146.25V19.125V21H144.375ZM157.5 21H155.625H153.75H151.875H150V19.125H148.125V17.25V15.375V13.5V11.625V9.75H150V7.875H151.875V6H153.75H155.625H157.5H159.375V7.875H161.25V9.75H163.125V11.625V13.5V15.375V17.25H161.25V19.125H159.375V21H157.5ZM155.625 17.25H157.5V15.375V13.5V11.625H155.625V9.75H153.75V11.625V13.5V15.375V17.25H155.625ZM174.375 21H172.5H170.625H168.75H166.875H165V19.125H166.875V17.25V15.375V13.5V11.625V9.75H165V7.875H166.875V6H168.75H170.625H172.5V7.875H174.375H176.25V6H178.125H180V7.875H181.875V9.75V11.625H180V13.5H178.125H176.25V11.625H174.375V13.5V15.375V17.25V19.125H176.25V21H174.375ZM211.875 21H210V19.125H208.125V17.25V15.375H206.25H204.375V17.25V19.125H202.5V21H200.625H198.75V19.125V17.25H196.875V15.375H195V13.5V11.625V9.75H193.125V7.875V6H195H196.875H198.75H200.625V7.875V9.75V11.625H202.5H204.375V9.75H202.5V7.875V6H204.375H206.25H208.125H210H211.875V7.875V9.75H210V11.625H211.875H213.75V9.75H215.625V7.875H213.75V6H215.625H217.5H219.375V7.875H217.5V9.75V11.625V13.5H215.625V15.375V17.25H213.75V19.125V21H211.875ZM230.625 21H228.75H226.875H225H223.125V19.125H221.25V17.25V15.375V13.5V11.625V9.75H223.125V7.875H225V6H226.875H228.75H230.625H232.5V7.875H234.375V9.75H236.25V11.625V13.5V15.375V17.25H234.375V19.125H232.5V21H230.625ZM228.75 17.25H230.625V15.375V13.5V11.625H228.75V9.75H226.875V11.625V13.5V15.375V17.25H228.75ZM247.5 21H245.625H243.75H241.875H240H238.125V19.125H240V17.25V15.375V13.5V11.625V9.75H238.125V7.875H240V6H241.875H243.75H245.625V7.875H247.5H249.375V6H251.25H253.125V7.875H255V9.75V11.625H253.125V13.5H251.25H249.375V11.625H247.5V13.5V15.375V17.25V19.125H249.375V21H247.5ZM277.5 21H275.625H273.75H271.875H270V19.125H268.125V17.25H266.25V19.125V21H264.375H262.5H260.625H258.75H256.875V19.125H258.75V17.25V15.375V13.5V11.625V9.75V7.875V6V4.125H256.875V2.25H258.75V0.375H260.625H262.5H264.375V2.25H266.25V4.125V6V7.875V9.75H268.125V7.875H270V6H271.875H273.75H275.625V7.875V9.75H273.75H271.875V11.625V13.5H273.75V15.375H275.625V17.25H277.5V19.125H279.375V21H277.5ZM7.5 54H5.625H3.75H1.875H0V52.125H1.875V50.25V48.375V46.5V44.625H0V42.75H1.875V40.875H3.75H5.625H7.5V42.75V44.625V46.5V48.375V50.25V52.125H9.375V54H7.5ZM3.75 39H1.875V37.125H0V35.25H1.875V33.375H3.75H5.625H7.5V35.25V37.125H5.625V39H3.75ZM28.125 54H26.25H24.375H22.5V52.125V50.25V48.375V46.5V44.625H20.625V46.5V48.375V50.25V52.125V54H18.75H16.875H15H13.125V52.125V50.25V48.375V46.5V44.625V42.75H11.25V40.875H13.125V39H15H16.875H18.75V40.875H20.625H22.5V39H24.375H26.25V40.875H28.125V42.75H30V44.625V46.5V48.375V50.25V52.125V54H28.125ZM48.75 59.625H46.875H45H43.125H41.25V57.75V55.875H43.125V54H41.25H39.375H37.5H35.625V52.125H33.75V50.25H31.875V48.375V46.5V44.625H33.75V42.75V40.875H35.625H37.5V39H39.375H41.25H43.125V40.875H45V39H46.875H48.75V40.875H50.625V42.75V44.625H48.75V46.5V48.375V50.25V52.125V54V55.875H50.625V57.75V59.625H48.75ZM41.25 50.25H43.125V48.375V46.5V44.625V42.75H41.25H39.375V44.625V46.5V48.375V50.25H41.25ZM71.25 54H69.375H67.5H65.625H63.75H61.875H60H58.125H56.25V52.125H54.375V50.25V48.375V46.5V44.625V42.75H52.5V40.875H54.375V39H56.25H58.125H60H61.875V40.875V42.75V44.625V46.5V48.375V50.25H63.75H65.625V48.375V46.5V44.625V42.75H63.75V40.875H65.625V39H67.5H69.375H71.25V40.875V42.75V44.625V46.5V48.375V50.25H73.125V52.125V54H71.25ZM82.5 54H80.625H78.75H76.875H75V52.125H76.875V50.25V48.375V46.5V44.625H75V42.75H76.875V40.875H78.75H80.625H82.5V42.75V44.625V46.5V48.375V50.25V52.125H84.375V54H82.5ZM78.75 39H76.875V37.125H75V35.25H76.875V33.375H78.75H80.625H82.5V35.25V37.125H80.625V39H78.75ZM95.625 54H93.75H91.875H90H88.125H86.25V52.125H88.125V50.25V48.375V46.5V44.625V42.75H86.25V40.875H88.125V39H90H91.875H93.75V40.875H95.625H97.5V39H99.375H101.25V40.875H103.125V42.75V44.625H101.25V46.5H99.375H97.5V44.625H95.625V46.5V48.375V50.25V52.125H97.5V54H95.625ZM112.5 54H110.625H108.75H106.875H105V52.125H106.875V50.25V48.375V46.5V44.625H105V42.75H106.875V40.875H108.75H110.625H112.5V42.75V44.625V46.5V48.375V50.25V52.125H114.375V54H112.5ZM108.75 39H106.875V37.125H105V35.25H106.875V33.375H108.75H110.625H112.5V35.25V37.125H110.625V39H108.75ZM127.5 54H125.625H123.75H121.875H120V52.125H118.125V50.25H116.25V48.375V46.5V44.625H118.125V42.75V40.875H120H121.875V39H123.75H125.625H127.5V40.875H129.375V42.75H131.25V44.625V46.5H129.375H127.5H125.625H123.75H121.875V48.375H123.75V50.25H125.625H127.5V48.375H129.375H131.25V50.25V52.125H129.375V54H127.5ZM123.75 44.625H125.625V42.75H123.75H121.875V44.625H123.75ZM142.5 54H140.625H138.75H136.875H135V52.125H133.125V50.25H135H136.875H138.75V48.375H136.875H135V46.5V44.625V42.75V40.875H136.875V39H138.75H140.625H142.5H144.375V40.875H146.25V42.75H144.375H142.5H140.625V44.625H142.5H144.375V46.5H146.25V48.375V50.25V52.125H144.375V54H142.5Z" fill="#FB879E"/>
</svg>
