<svg width="563" height="147" viewBox="0 0 563 147" fill="none" xmlns="http://www.w3.org/2000/svg">
<path d="M49.8861 57.1429V50H42.7595V42.8571H35.6329V50V57.1429V64.2857H42.7595V71.4286V78.5714H35.6329H28.5063H21.3797H14.2532H7.12658H0V71.4286V64.2857H7.12658V57.1429V50V42.8571V35.7143V28.5714V21.4286V14.2857H0V7.14286V0H7.12658H14.2532H21.3797H28.5063H35.6329H42.7595H49.8861H57.0127H64.1392H71.2658H78.3924V7.14286V14.2857V21.4286H71.2658H64.1392V14.2857H57.0127H49.8861H42.7595H35.6329V21.4286V28.5714H42.7595H49.8861V21.4286H57.0127V28.5714V35.7143V42.8571V50V57.1429H49.8861ZM156.785 78.5714H149.658H142.532H135.405H128.278H121.152H114.025H106.899H99.7722V71.4286H92.6456V64.2857V57.1429V50V42.8571V35.7143H85.519V28.5714H92.6456V21.4286H99.7722H106.899H114.025H121.152V28.5714V35.7143V42.8571V50V57.1429V64.2857H128.278H135.405V57.1429V50V42.8571V35.7143H128.278V28.5714H135.405V21.4286H142.532H149.658H156.785V28.5714V35.7143V42.8571V50V57.1429V64.2857H163.911V71.4286V78.5714H156.785ZM185.291 100H178.165H171.038V92.8571H178.165V85.7143V78.5714V71.4286V64.2857V57.1429V50V42.8571V35.7143H171.038V28.5714H178.165H185.291H192.418H199.544V35.7143V42.8571V50V57.1429V64.2857V71.4286V78.5714V85.7143V92.8571H192.418V100H185.291ZM185.291 21.4286H178.165V14.2857H171.038V7.14286H178.165V0H185.291H192.418H199.544V7.14286V14.2857H192.418V21.4286H185.291ZM242.304 78.5714H235.177H228.051H220.924H213.797V71.4286H206.671V64.2857V57.1429V50V42.8571V35.7143H213.797V28.5714H220.924V21.4286H228.051H235.177H242.304H249.43V28.5714H256.557V35.7143H263.684V42.8571V50V57.1429V64.2857H256.557V71.4286H249.43V78.5714H242.304ZM235.177 64.2857H242.304V57.1429V50V42.8571H235.177V35.7143H228.051V42.8571V50V57.1429V64.2857H235.177ZM334.949 78.5714H327.823H320.696H313.57V71.4286V64.2857V57.1429V50V42.8571H306.443V50V57.1429V64.2857V71.4286V78.5714H299.316H292.19H285.063H277.937V71.4286V64.2857V57.1429V50V42.8571V35.7143H270.81V28.5714H277.937V21.4286H285.063H292.19H299.316V28.5714H306.443H313.57V21.4286H320.696H327.823V28.5714H334.949V35.7143H342.076V42.8571V50V57.1429V64.2857V71.4286V78.5714H334.949ZM391.962 78.5714H384.835H377.709H370.582H363.456V71.4286H356.329V64.2857H349.203V57.1429V50V42.8571H356.329V35.7143V28.5714H363.456H370.582V21.4286H377.709H384.835H391.962V28.5714H399.089V35.7143H406.215V42.8571V50H399.089H391.962H384.835H377.709H370.582V57.1429H377.709V64.2857H384.835H391.962V57.1429H399.089H406.215V64.2857V71.4286H399.089V78.5714H391.962ZM377.709 42.8571H384.835V35.7143H377.709H370.582V42.8571H377.709ZM491.734 78.5714H484.608H477.481H470.354H463.228V71.4286H456.101V64.2857H448.975V71.4286V78.5714H441.848H434.722H427.595H420.468H413.342V71.4286H420.468V64.2857V57.1429V50V42.8571V35.7143V28.5714V21.4286V14.2857H413.342V7.14286H420.468V0H427.595H434.722H441.848V7.14286H448.975V14.2857V21.4286V28.5714V35.7143H456.101V28.5714H463.228V21.4286H470.354H477.481H484.608V28.5714V35.7143H477.481H470.354V42.8571V50H477.481V57.1429H484.608V64.2857H491.734V71.4286H498.861V78.5714H491.734ZM541.62 78.5714H534.494H527.367H520.241H513.114V71.4286H505.987V64.2857V57.1429V50V42.8571V35.7143H513.114V28.5714H520.241V21.4286H527.367H534.494H541.62H548.747V28.5714H555.873V35.7143H563V42.8571V50V57.1429V64.2857H555.873V71.4286H548.747V78.5714H541.62ZM534.494 64.2857H541.62V57.1429V50V42.8571H534.494V35.7143H527.367V42.8571V50V57.1429V64.2857H534.494Z" fill="url(#paint0_linear_1_98)"/>
<path d="M102.896 147H100.917H98.9378H96.9586V145.001H94.9793V143V140.999V139V137.001V135H93V132.999V131H94.9793V129.001H96.9586H98.9378V127H100.917H102.896V129.001V131H104.876H106.855V132.999V135H104.876H102.896V137.001V139V140.999V143H104.876V140.999H106.855V143V145.001H104.876V147H102.896ZM116.355 147H114.376H112.397H110.418H108.438H106.459V145.001H108.438V143V140.999V139V137.001V135H106.459V132.999H108.438V131H110.418H112.397H114.376V132.999H116.355H118.335V131H120.314H122.293V132.999H124.273V135V137.001H122.293V139H120.314H118.335V137.001H116.355V139V140.999V143V145.001H118.335V147H116.355ZM139.711 147H137.731H135.752H133.774H131.794H129.814H127.835H125.856V145.001H123.877V143V140.999H125.856V139H127.835H129.814H131.794V137.001H133.774V135H131.794H129.814V137.001H127.835H125.856V135V132.999H127.835V131H129.814H131.794H133.774H135.752H137.731V132.999H139.711V135V137.001V139V140.999V143H141.691V145.001V147H139.711ZM133.774 145.001V143V140.999H131.794V143V145.001H133.774ZM159.109 147H157.129H155.149H153.17V145.001V143V140.999V139V137.001H151.191V139V140.999V143V145.001V147H149.211H147.232H145.253H143.274V145.001V143V140.999V139V137.001V135H141.294V132.999H143.274V131H145.253H147.232H149.211V132.999H151.191H153.17V131H155.149H157.129V132.999H159.109V135H161.087V137.001V139V140.999V143V145.001V147H159.109ZM170.588 147H168.609H166.629H164.649H162.671V145.001H160.692V143H162.671H164.649H166.629V140.999H164.649H162.671V139V137.001V135V132.999H164.649V131H166.629H168.609H170.588H172.566V132.999H174.546V135H172.566H170.588H168.609V137.001H170.588H172.566V139H174.546V140.999V143V145.001H172.566V147H170.588ZM184.047 147H182.067H180.088H178.11H176.13H174.15V145.001H176.13V143V140.999V139V137.001V135V132.999V131H174.15V129.001V127H176.13H178.11V125H180.088H182.067H184.047V127V129.001V131V132.999V135V137.001V139V140.999V143V145.001H186.027V147H184.047ZM201.464 147H199.485H197.506H195.527H193.547H191.567H189.589H187.61V145.001H185.63V143V140.999H187.61V139H189.589H191.567H193.547V137.001H195.527V135H193.547H191.567V137.001H189.589H187.61V135V132.999H189.589V131H191.567H193.547H195.527H197.506H199.485V132.999H201.464V135V137.001V139V140.999V143H203.444V145.001V147H201.464ZM195.527 145.001V143V140.999H193.547V143V145.001H195.527ZM212.945 147H210.965H208.985H207.006V145.001H205.028V143V140.999V139V137.001V135H203.048V132.999V131H205.028V129.001H207.006H208.985V127H210.965H212.945V129.001V131H214.924H216.902V132.999V135H214.924H212.945V137.001V139V140.999V143H214.924V140.999H216.902V143V145.001H214.924V147H212.945ZM224.424 147H222.445H220.465H218.486H216.507V145.001H218.486V143V140.999V139V137.001H216.507V135H218.486V132.999H220.465H222.445H224.424V135V137.001V139V140.999V143V145.001H226.403V147H224.424ZM220.465 131H218.486V129.001H216.507V127H218.486V125H220.465H222.445H224.424V127V129.001H222.445V131H220.465ZM235.903 147H233.925H231.946H229.966H227.986V145.001H226.007V143V140.999V139V137.001V135H227.986V132.999H229.966V131H231.946H233.925H235.903H237.883V132.999H239.863V135H241.842V137.001V139V140.999V143H239.863V145.001H237.883V147H235.903ZM233.925 143H235.903V140.999V139V137.001H233.925V135H231.946V137.001V139V140.999V143H233.925ZM259.259 147H257.281H255.301H253.321V145.001V143V140.999V139V137.001H251.342V139V140.999V143V145.001V147H249.364H247.384H245.404H243.425V145.001V143V140.999V139V137.001V135H241.446V132.999H243.425V131H245.404H247.384H249.364V132.999H251.342H253.321V131H255.301H257.281V132.999H259.259V135H261.238V137.001V139V140.999V143V145.001V147H259.259ZM286.178 147H284.199H282.219H280.239H278.26H276.282H274.302V145.001H272.322H270.343V143V140.999H268.365V139V137.001H270.343V135H272.322V132.999H270.343V131V129.001H272.322V127H274.302V125H276.282H278.26H280.239H282.219V127H284.199V129.001H282.219H280.239H278.26V131V132.999H280.239V135H278.26V137.001H276.282V139H278.26V140.999V143H280.239H282.219H284.199H286.178V140.999H288.156V139H286.178H284.199H282.219H280.239V137.001H282.219V135H284.199V132.999H286.178H288.156V131V129.001H286.178V127H288.156H290.136H292.116H294.095V129.001H296.073V131V132.999H294.095V135H292.116V137.001H294.095V139V140.999H292.116V143V145.001H290.136H288.156V147H286.178ZM313.096 147H311.117H309.137H307.157H305.179H303.2V145.001H305.179V143V140.999V139V137.001V135V132.999V131H303.2V129.001V127H305.179H307.157V125H309.137H311.117H313.096V127V129.001V131V132.999V135V137.001V139V140.999V143V145.001H315.074V147H313.096ZM324.575 147H322.596H320.618H318.638H316.658V145.001H314.679V143V140.999V139V137.001V135H316.658V132.999H318.638V131H320.618H322.596H324.575H326.555V132.999H328.535V135H330.513V137.001V139V140.999V143H328.535V145.001H326.555V147H324.575ZM322.596 143H324.575V140.999V139V137.001H322.596V135H320.618V137.001V139V140.999V143H322.596ZM341.993 147H340.014H338.035H336.055H334.075V145.001H332.097V143H330.118V140.999V139V137.001H332.097V135V132.999H334.075H336.055V131H338.035H340.014H341.993V132.999H343.972H345.952V135V137.001V139H343.972H341.993V137.001H340.014V135H338.035V137.001V139V140.999H340.014V143H341.993V140.999H343.972H345.952V143V145.001H343.972V147H341.993ZM361.39 147H359.41H357.432H355.453H353.473H351.493H349.514H347.536V145.001H345.556V143V140.999H347.536V139H349.514H351.493H353.473V137.001H355.453V135H353.473H351.493V137.001H349.514H347.536V135V132.999H349.514V131H351.493H353.473H355.453H357.432H359.41V132.999H361.39V135V137.001V139V140.999V143H363.37V145.001V147H361.39ZM355.453 145.001V143V140.999H353.473V143V145.001H355.453ZM372.871 147H370.891H368.911H366.932H364.953H362.973V145.001H364.953V143V140.999V139V137.001V135V132.999V131H362.973V129.001V127H364.953H366.932V125H368.911H370.891H372.871V127V129.001V131V132.999V135V137.001V139V140.999V143V145.001H374.849V147H372.871ZM382.371 147H380.391H378.411H376.433H374.454V145.001H376.433V143V140.999V139V137.001H374.454V135H376.433V132.999H378.411H380.391H382.371V135V137.001V139V140.999V143V145.001H384.35V147H382.371ZM378.411 131H376.433V129.001H374.454V127H376.433V125H378.411H380.391H382.371V127V129.001H380.391V131H378.411ZM397.809 147H395.829H393.85H391.872H389.892H387.912H385.933H383.954V145.001H385.933V143V140.999H387.912V139H389.892V137.001V135H387.912V137.001H385.933H383.954V135V132.999V131H385.933H387.912H389.892H391.872H393.85H395.829H397.809V132.999V135V137.001H395.829V139V140.999H393.85V143H395.829H397.809V140.999H399.789V143V145.001V147H397.809ZM415.226 147H413.247H411.268H409.289H407.309H405.329H403.351H401.372V145.001H399.392V143V140.999H401.372V139H403.351H405.329H407.309V137.001H409.289V135H407.309H405.329V137.001H403.351H401.372V135V132.999H403.351V131H405.329H407.309H409.289H411.268H413.247V132.999H415.226V135V137.001V139V140.999V143H417.206V145.001V147H415.226ZM409.289 145.001V143V140.999H407.309V143V145.001H409.289ZM426.707 147H424.727H422.747H420.768V145.001H418.79V143V140.999V139V137.001V135H416.81V132.999V131H418.79V129.001H420.768H422.747V127H424.727H426.707V129.001V131H428.686H430.664V132.999V135H428.686H426.707V137.001V139V140.999V143H428.686V140.999H430.664V143V145.001H428.686V147H426.707ZM438.186 147H436.207H434.227H432.248H430.269V145.001H432.248V143V140.999V139V137.001H430.269V135H432.248V132.999H434.227H436.207H438.186V135V137.001V139V140.999V143V145.001H440.165V147H438.186ZM434.227 131H432.248V129.001H430.269V127H432.248V125H434.227H436.207H438.186V127V129.001H436.207V131H434.227ZM449.665 147H447.687H445.708H443.728H441.748V145.001H439.769V143V140.999V139V137.001V135H441.748V132.999H443.728V131H445.708H447.687H449.665H451.645V132.999H453.625V135H455.604V137.001V139V140.999V143H453.625V145.001H451.645V147H449.665ZM447.687 143H449.665V140.999V139V137.001H447.687V135H445.708V137.001V139V140.999V143H447.687ZM473.021 147H471.043H469.063H467.083V145.001V143V140.999V139V137.001H465.104V139V140.999V143V145.001V147H463.126H461.146H459.166H457.187V145.001V143V140.999V139V137.001V135H455.208V132.999H457.187V131H459.166H461.146H463.126V132.999H465.104H467.083V131H469.063H471.043V132.999H473.021V135H475V137.001V139V140.999V143V145.001V147H473.021Z" fill="url(#paint1_linear_1_98)"/>
<defs>
<linearGradient id="paint0_linear_1_98" x1="28.0744" y1="47.0606" x2="520.456" y2="47.0606" gradientUnits="userSpaceOnUse">
<stop stop-color="#FB879E"/>
<stop offset="1" stop-color="#8CC5FC"/>
</linearGradient>
<linearGradient id="paint1_linear_1_98" x1="41.6971" y1="138.04" x2="493.289" y2="138.04" gradientUnits="userSpaceOnUse">
<stop stop-color="#FB879E"/>
<stop offset="1" stop-color="#8CC5FC"/>
</linearGradient>
</defs>
</svg>
