<svg width="178" height="32" viewBox="0 0 178 32" fill="none" xmlns="http://www.w3.org/2000/svg">
<path d="M15.7722 18.2857V16H13.519V13.7143H11.2658V16V18.2857V20.5714H13.519V22.8571V25.1429H11.2658H9.01266H6.75949H4.50633H2.25316H0V22.8571V20.5714H2.25316V18.2857V16V13.7143V11.4286V9.14286V6.85714V4.57143H0V2.28571V0H2.25316H4.50633H6.75949H9.01266H11.2658H13.519H15.7722H18.0253H20.2785H22.5316H24.7848V2.28571V4.57143V6.85714H22.5316H20.2785V4.57143H18.0253H15.7722H13.519H11.2658V6.85714V9.14286H13.519H15.7722V6.85714H18.0253V9.14286V11.4286V13.7143V16V18.2857H15.7722ZM49.5696 25.1429H47.3165H45.0633H42.8101H40.557H38.3038H36.0506H33.7975H31.5443V22.8571H29.2911V20.5714V18.2857V16V13.7143V11.4286H27.038V9.14286H29.2911V6.85714H31.5443H33.7975H36.0506H38.3038V9.14286V11.4286V13.7143V16V18.2857V20.5714H40.557H42.8101V18.2857V16V13.7143V11.4286H40.557V9.14286H42.8101V6.85714H45.0633H47.3165H49.5696V9.14286V11.4286V13.7143V16V18.2857V20.5714H51.8228V22.8571V25.1429H49.5696ZM58.5823 32H56.3291H54.0759V29.7143H56.3291V27.4286V25.1429V22.8571V20.5714V18.2857V16V13.7143V11.4286H54.0759V9.14286H56.3291H58.5823H60.8354H63.0886V11.4286V13.7143V16V18.2857V20.5714V22.8571V25.1429V27.4286V29.7143H60.8354V32H58.5823ZM58.5823 6.85714H56.3291V4.57143H54.0759V2.28571H56.3291V0H58.5823H60.8354H63.0886V2.28571V4.57143H60.8354V6.85714H58.5823ZM76.6076 25.1429H74.3544H72.1013H69.8481H67.5949V22.8571H65.3418V20.5714V18.2857V16V13.7143V11.4286H67.5949V9.14286H69.8481V6.85714H72.1013H74.3544H76.6076H78.8608V9.14286H81.1139V11.4286H83.3671V13.7143V16V18.2857V20.5714H81.1139V22.8571H78.8608V25.1429H76.6076ZM74.3544 20.5714H76.6076V18.2857V16V13.7143H74.3544V11.4286H72.1013V13.7143V16V18.2857V20.5714H74.3544ZM105.899 25.1429H103.646H101.392H99.1392V22.8571V20.5714V18.2857V16V13.7143H96.8861V16V18.2857V20.5714V22.8571V25.1429H94.6329H92.3797H90.1266H87.8734V22.8571V20.5714V18.2857V16V13.7143V11.4286H85.6203V9.14286H87.8734V6.85714H90.1266H92.3797H94.6329V9.14286H96.8861H99.1392V6.85714H101.392H103.646V9.14286H105.899V11.4286H108.152V13.7143V16V18.2857V20.5714V22.8571V25.1429H105.899ZM123.924 25.1429H121.671H119.418H117.165H114.911V22.8571H112.658V20.5714H110.405V18.2857V16V13.7143H112.658V11.4286V9.14286H114.911H117.165V6.85714H119.418H121.671H123.924V9.14286H126.177V11.4286H128.43V13.7143V16H126.177H123.924H121.671H119.418H117.165V18.2857H119.418V20.5714H121.671H123.924V18.2857H126.177H128.43V20.5714V22.8571H126.177V25.1429H123.924ZM119.418 13.7143H121.671V11.4286H119.418H117.165V13.7143H119.418ZM155.468 25.1429H153.215H150.962H148.709H146.456V22.8571H144.203V20.5714H141.949V22.8571V25.1429H139.696H137.443H135.19H132.937H130.684V22.8571H132.937V20.5714V18.2857V16V13.7143V11.4286V9.14286V6.85714V4.57143H130.684V2.28571H132.937V0H135.19H137.443H139.696V2.28571H141.949V4.57143V6.85714V9.14286V11.4286H144.203V9.14286H146.456V6.85714H148.709H150.962H153.215V9.14286V11.4286H150.962H148.709V13.7143V16H150.962V18.2857H153.215V20.5714H155.468V22.8571H157.722V25.1429H155.468ZM171.241 25.1429H168.987H166.734H164.481H162.228V22.8571H159.975V20.5714V18.2857V16V13.7143V11.4286H162.228V9.14286H164.481V6.85714H166.734H168.987H171.241H173.494V9.14286H175.747V11.4286H178V13.7143V16V18.2857V20.5714H175.747V22.8571H173.494V25.1429H171.241ZM168.987 20.5714H171.241V18.2857V16V13.7143H168.987V11.4286H166.734V13.7143V16V18.2857V20.5714H168.987Z" fill="url(#paint0_linear_1_80)"/>
<defs>
<linearGradient id="paint0_linear_1_80" x1="8.87611" y1="15.0594" x2="164.549" y2="15.0594" gradientUnits="userSpaceOnUse">
<stop stop-color="#FB879E"/>
<stop offset="1" stop-color="#8CC5FC"/>
</linearGradient>
</defs>
</svg>
