<svg width="170" height="36" viewBox="0 0 170 36" fill="none" xmlns="http://www.w3.org/2000/svg">
<path d="M10 28H7.5H5H2.5H0V25.5V23H2.5V20.5V18V15.5V13V10.5V8V5.5H0V3V0.5H2.5H5H7.5H10H12.5H15H17.5V3H20H22.5V5.5H25V8V10.5V13H22.5V15.5H20V18H17.5H15H12.5H10V20.5V23H12.5V25.5V28H10ZM12.5 13H15V10.5V8V5.5H12.5H10V8V10.5V13H12.5ZM40 28H37.5H35H32.5H30H27.5V25.5H30V23V20.5V18V15.5V13H27.5V10.5H30V8H32.5H35H37.5V10.5H40H42.5V8H45H47.5V10.5H50V13V15.5H47.5V18H45H42.5V15.5H40V18V20.5V23V25.5H42.5V28H40ZM65 28H62.5H60H57.5H55V25.5H52.5V23V20.5V18V15.5V13H55V10.5H57.5V8H60H62.5H65H67.5V10.5H70V13H72.5V15.5V18V20.5V23H70V25.5H67.5V28H65ZM62.5 23H65V20.5V18V15.5H62.5V13H60V15.5V18V20.5V23H62.5ZM80 35.5H77.5H75V33H77.5V30.5V28V25.5V23V20.5V18V15.5V13H75V10.5H77.5H80H82.5H85V13V15.5V18V20.5V23V25.5V28V30.5V33H82.5V35.5H80ZM80 8H77.5V5.5H75V3H77.5V0.5H80H82.5H85V3V5.5H82.5V8H80ZM102.5 28H100H97.5H95H92.5V25.5H90V23H87.5V20.5V18V15.5H90V13V10.5H92.5H95V8H97.5H100H102.5V10.5H105V13H107.5V15.5V18H105H102.5H100H97.5H95V20.5H97.5V23H100H102.5V20.5H105H107.5V23V25.5H105V28H102.5ZM97.5 15.5H100V13H97.5H95V15.5H97.5ZM125 28H122.5H120H117.5H115V25.5H112.5V23H110V20.5V18V15.5H112.5V13V10.5H115H117.5V8H120H122.5H125V10.5H127.5H130V13V15.5V18H127.5H125V15.5H122.5V13H120V15.5V18V20.5H122.5V23H125V20.5H127.5H130V23V25.5H127.5V28H125ZM145 28H142.5H140H137.5V25.5H135V23V20.5V18V15.5V13H132.5V10.5V8H135V5.5H137.5H140V3H142.5H145V5.5V8H147.5H150V10.5V13H147.5H145V15.5V18V20.5V23H147.5V20.5H150V23V25.5H147.5V28H145ZM165 28H162.5H160H157.5H155V25.5H152.5V23H155H157.5H160V20.5H157.5H155V18V15.5V13V10.5H157.5V8H160H162.5H165H167.5V10.5H170V13H167.5H165H162.5V15.5H165H167.5V18H170V20.5V23V25.5H167.5V28H165Z" fill="url(#paint0_linear_11_240)"/>
<defs>
<linearGradient id="paint0_linear_11_240" x1="8.51894" y1="17.1852" x2="157.928" y2="17.1852" gradientUnits="userSpaceOnUse">
<stop stop-color="#FB879E"/>
<stop offset="1" stop-color="#8CC5FC"/>
</linearGradient>
</defs>
</svg>
